# xmcd
#
# Track frame offsets:
#	150
#	22028
#	45454
#	64193
#	83183
#	103762
#	125728
#	141623
#	164872
#	184148
#	211032
#	227046
#	246048
#	270392
#	293737
#
# Disc length: 4141 seconds
#
# Revision: 0
# Processed by: cddbd v1.4PL0 Copyright (c) Steve Scherf et al.
# Submitted via: dBpowerAMP V4.0
#
DISCID=e1102b0f
DTITLE=Johnny Lang - Greatest Hits
DYEAR=1900
DGENRE=Blues
TTITLE0=Still Rainin'
TTITLE1=Second Guessin'
TTITLE2=Rack 'Em Up
TTITLE3=Lie to Me
TTITLE4=Breakin' Me
TTITLE5=Wander This World
TTITLE6=Matchbox
TTITLE7=Darker Side
TTITLE8=Good Morning Little Schoolgirl
TTITLE9=A Quiter Never Wins
TTITLE10=Hit The Ground Runnin'
TTITLE11=There's Gotta Be A Change
TTITLE12=Midnight Train (w/Buddy Guy)
TTITLE13=Rainy Day Blues (w/Willie Nelson)
TTITLE14=Breakin' Me (Acoustic)
EXTD=
EXTT0=
EXTT1=
EXTT2=
EXTT3=
EXTT4=
EXTT5=
EXTT6=
EXTT7=
EXTT8=
EXTT9=
EXTT10=
EXTT11=
EXTT12=
EXTT13=
EXTT14=
PLAYORDER=
